<svg width="284" height="431" viewBox="0 0 284 431" fill="none" xmlns="http://www.w3.org/2000/svg">
<path d="M43 64L141 18L243 64L271 154H3L43 64Z" fill="url(#paint0_linear)"/>
<path d="M283.292 150.11C279.432 77.54 221.422 20.14 149.652 16.15V8C149.652 3.58 146.072 0 141.652 0C137.232 0 133.652 3.58 133.652 8V16.15C61.8721 20.14 3.87205 77.54 0.0120538 150.11C-0.107946 152.29 0.672057 154.42 2.17206 156.01C2.21206 156.06 2.25206 156.09 2.29206 156.13C2.54206 157.04 2.95206 157.92 3.54206 158.73L54.1521 227.82V272.58C54.1521 289.9 68.2421 304 85.5721 304H105.992V408.15C105.992 420.75 116.252 431 128.842 431H129.142C134.812 431 140.002 428.92 143.992 425.5C147.992 428.92 153.182 431 158.842 431H159.152C171.742 431 181.992 420.75 181.992 408.15V304H197.722C215.052 304 229.152 289.9 229.152 272.58V231C229.152 230.86 229.132 230.72 229.132 230.58L281.752 158.73C283.172 156.79 283.582 154.43 283.102 152.26C283.262 151.56 283.332 150.84 283.292 150.11ZM149.652 33.14C175.722 41.08 197.112 87.11 200.182 143.65C193.922 145.41 189.832 148.93 186.612 151.71C182.792 155.01 180.492 157 175.102 157C169.722 157 167.422 155.01 163.612 151.72C160.322 148.87 156.132 145.26 149.652 143.54V33.14ZM133.652 33.14V143.53C127.162 145.26 122.972 148.87 119.682 151.71C115.872 155.01 113.572 157 108.182 157C102.802 157 100.502 155.01 96.6921 151.71C93.4721 148.93 89.3821 145.41 83.1121 143.65C86.1821 87.11 107.572 41.09 133.652 33.14ZM16.5721 143.74C21.9921 94.7 55.4221 54.51 100.212 38.9C96.0021 44.12 92.0621 50.18 88.4521 57.04C76.2921 80.17 68.7921 110.63 67.1021 143.43C60.4021 145.11 56.1121 148.81 52.7621 151.71C48.9521 155.01 46.6421 157 41.2621 157C35.8721 157 33.5721 155.01 29.7621 151.71C26.6021 148.98 22.6221 145.54 16.5721 143.74ZM85.5721 288C77.0721 288 70.1521 281.08 70.1521 272.58V249.67L98.2221 288H85.5721ZM165.992 408.15C165.992 411.93 162.922 415 159.152 415H158.842C155.072 415 151.992 411.93 151.992 408.15C151.992 407.78 151.962 407.43 151.912 407.08C151.962 406.72 151.992 406.37 151.992 406V362C151.992 357.58 148.412 354 143.992 354C139.582 354 135.992 357.58 135.992 362V406C135.992 406.37 136.032 406.72 136.082 407.08C136.032 407.43 135.992 407.78 135.992 408.15C135.992 411.93 132.922 415 129.142 415H128.842C125.072 415 121.992 411.93 121.992 408.15V304H165.992V408.15ZM141.992 260C133.722 260 126.992 253.27 126.992 245C126.992 236.73 133.722 230 141.992 230C150.272 230 156.992 236.73 156.992 245C156.992 253.27 150.272 260 141.992 260ZM158.052 288H128.942L135.312 275.27C137.462 275.74 139.702 276 141.992 276C145.252 276 148.382 275.49 151.332 274.56L158.052 288ZM213.152 272.58C213.152 281.08 206.232 288 197.722 288H187.072L213.152 252.4V272.58ZM172.412 280.94L165.152 266.42C165.062 266.24 164.962 266.08 164.862 265.91C169.912 260.39 172.992 253.05 172.992 245C172.992 227.91 159.092 214 141.992 214C124.902 214 110.992 227.91 110.992 245C110.992 254.05 114.902 262.21 121.112 267.89L113.892 282.32L69.3021 221.44C68.8921 220.62 68.3521 219.88 67.7021 219.24L33.0521 171.93C35.4521 172.59 38.1521 173 41.2621 173C52.6021 173 58.7421 167.69 63.2221 163.82C67.0321 160.52 69.3321 158.53 74.7221 158.53H74.8021C80.1321 158.55 82.4221 160.53 86.2221 163.82C90.7021 167.69 96.8421 173 108.182 173C119.532 173 125.662 167.69 130.152 163.81C133.962 160.52 136.262 158.53 141.642 158.53C147.032 158.53 149.332 160.52 153.142 163.82C157.622 167.69 163.762 173 175.102 173C186.452 173 192.592 167.69 197.072 163.82C200.872 160.53 203.162 158.55 208.562 158.53C213.952 158.53 216.252 160.52 220.072 163.82C224.552 167.69 230.692 173 242.032 173C246.332 173 249.882 172.24 252.882 171.08L172.412 280.94ZM253.532 151.71C249.722 155.01 247.422 157 242.032 157C236.652 157 234.342 155.01 230.532 151.71C227.182 148.81 222.892 145.11 216.202 143.43C214.502 110.63 207.002 80.17 194.842 57.04C191.242 50.18 187.302 44.12 183.092 38.9C227.882 54.51 261.312 94.7 266.722 143.74C260.672 145.54 256.692 148.99 253.532 151.71Z" fill="black"/>
<defs>
<linearGradient id="paint0_linear" x1="63" y1="102" x2="271" y2="130" gradientUnits="userSpaceOnUse">
<stop stop-color="#F8B710"/>
<stop offset="1" stop-color="#ED8E34"/>
</linearGradient>
</defs>
</svg>
