<?xml version="1.0" encoding="UTF-8"?>
<svg width="484px" height="541px" viewBox="0 0 484 541" version="1.1" xmlns="http://www.w3.org/2000/svg" xmlns:xlink="http://www.w3.org/1999/xlink">
    <!-- Generator: Sketch 58 (84663) - https://sketch.com -->
    <title>like</title>
    <desc>Created with Sketch.</desc>
    <defs>
        <linearGradient x1="28.8305359%" y1="12.2261632%" x2="70.7272018%" y2="100%" id="linearGradient-1">
            <stop stop-color="#F8B712" offset="0%"></stop>
            <stop stop-color="#EE9231" offset="100%"></stop>
        </linearGradient>
    </defs>
    <g id="Page-1" stroke="none" stroke-width="1" fill="none" fill-rule="evenodd">
        <g id="like" transform="translate(10.000000, 15.000000)" fill-rule="nonzero" stroke="#000000">
            <path d="M450.404051,386 C458.731196,393.340632 464,404.077453 464,416 C464,436.501518 448.42077,453.496985 428.501478,455.747232 C431.99589,461.687416 434,468.609608 434,476 C434,498.090347 416.091347,515.999 394,515.999 L253.3,515.999 C236.20372,515.999 219.234545,513.184029 202.749344,507.690031 L144,488.193702 L144,255.947918 L151.764476,254.167081 C175.945436,248.621008 194.846946,232.622079 210.071238,206.721263 C222.515226,185.550529 231.699567,159.756433 240.874228,124.064648 C243.402625,112.966696 254.291938,105 265,105 L274,105 C304.189971,105 329,129.648206 329,160 C329.000038,160.796826 329.000038,160.796826 329.000151,161.586689 C329.002125,175.309542 328.932171,180.815029 328.552296,187.949765 C327.48102,208.070267 323.779051,227.161886 314.749817,256 L424,256 C446.022847,256 464,273.977153 464,296 C464,307.922547 458.731196,318.659368 450.404051,326 C458.731196,333.340632 464,344.077453 464,356 C464,367.922547 458.731196,378.659368 450.404051,386 Z" id="Path" stroke-width="20" fill="url(#linearGradient-1)"></path>
            <path d="M61.875,251 L12.375,251 C5.534925,251 0,256.546107 0,263.4 L0,486.6 C0,493.453893 5.534925,499 12.375,499 L61.875,499 C82.34655,499 99,482.312907 99,461.8 L99,288.2 C99,267.687093 82.34655,251 61.875,251 Z M54,450 C51.2386667,450 49,447.761333 49,445 C49,442.238 51.2386667,440 54,440 C55.6249801,440 57.0689583,440.77503 57.9822271,441.97579 C58.6208785,442.815485 59,443.863372 59,445 C59,447.761333 56.7613333,450 54,450 Z" id="Shape" stroke-width="20" fill="#FFFFFF"></path>
            <path d="M215.66517,43.9439491 C222.827277,51.1060562 222.827277,62.7135627 215.664717,69.8761223 C208.501916,77.0377013 196.895481,77.0377013 189.733449,69.8756697 L174.40833,54.5505509 C167.246223,47.3884438 167.246223,35.7809373 174.40833,28.6188303 C181.570437,21.4567232 193.177944,21.4567232 200.340051,28.6188303 L215.66517,43.9439491 Z" id="Path" stroke-width="15" fill="#F4A81E"></path>
            <path d="M376.66517,28.6188303 C383.827277,35.7809373 383.827277,47.3884438 376.66517,54.5505509 L361.340051,69.8756697 C354.177944,77.0377768 342.570437,77.0377768 335.40833,69.8756697 C328.246223,62.7135627 328.246223,51.1060562 335.40833,43.9439491 L350.733449,28.6188303 C357.895556,21.4567232 369.503063,21.4567232 376.66517,28.6188303 Z" id="Path" stroke-width="15" fill="#F4A81E"></path>
            <path d="M275.53675,-6.75275 C285.84963,-6.75275 294.03675,1.48317503 294.03675,11.8128238 L294.03675,34.6816762 C294.03675,45.011325 285.84963,53.24725 275.53675,53.24725 C265.22387,53.24725 257.03675,45.011325 257.03675,34.6816762 L257.03675,11.8128238 C257.03675,1.48317503 265.22387,-6.75275 275.53675,-6.75275 Z" id="Path" stroke-width="15" fill="#F4A81E"></path>
        </g>
    </g>
</svg>