<?xml version="1.0" encoding="UTF-8"?>
<svg width="542px" height="558px" viewBox="0 0 542 558" version="1.1" xmlns="http://www.w3.org/2000/svg" xmlns:xlink="http://www.w3.org/1999/xlink">
    <!-- Generator: Sketch 58 (84663) - https://sketch.com -->
    <title>mountain</title>
    <desc>Created with Sketch.</desc>
    <defs>
        <linearGradient x1="10.0824653%" y1="16.6796875%" x2="79.4401042%" y2="100%" id="linearGradient-1">
            <stop stop-color="#FCDC28" offset="0%"></stop>
            <stop stop-color="#ED9130" offset="100%"></stop>
        </linearGradient>
    </defs>
    <g id="Page-1" stroke="none" stroke-width="1" fill="none" fill-rule="evenodd">
        <g id="mountain" transform="translate(10.000000, 10.000000)" fill-rule="nonzero">
            <path d="M442.5,0 C412.447489,0 388,24.4474889 388,54.5 C388,84.5525111 412.447489,109 442.5,109 C472.552511,109 497,84.5525111 497,54.5 C497,24.4474889 472.552511,0 442.5,0 Z" id="Path" stroke="#000000" stroke-width="20" fill="url(#linearGradient-1)"></path>
            <path d="M14,449 L14,516.467742 C14,528.35929 20.4930078,538 28.5019531,538 L494.498047,538 C502.506992,538 509,528.35929 509,516.467742 L509,449 L14,449 Z" id="Path" stroke="#000000" stroke-width="20" fill="#0152B3"></path>
            <path d="M499.666667,173.333333 L475.283133,173.333333 C470.669067,160.352456 458.398389,151 443.833333,151 C429.268278,151 416.9976,160.352456 412.383533,173.333333 L410.333333,173.333333 C397.998633,173.333333 388,183.331967 388,195.666667 C388,207.999878 397.998633,218 410.333333,218 L499.666667,218 C512.001367,218 522,207.999878 522,195.666667 C522,183.331967 512.001367,173.333333 499.666667,173.333333 Z" id="Path" stroke="#000000" stroke-width="20" fill="#FFFFFF"></path>
            <path d="M151,51 L148.246,51 C142.048,33.563 125.565,21 106,21 C86.435,21 69.952,33.563 63.754,51 L30,51 C13.431,51 0,64.431 0,81 C0,97.567 13.431,111 30,111 L151,111 C167.569,111 181,97.567 181,81 C181,64.431 167.569,51 151,51 Z" id="Path" stroke="#000000" stroke-width="20" fill="#FFFFFF"></path>
            <path d="M435.958168,264.339691 L364.455857,264.339691 C330.915805,264.339691 303.641644,236.995587 303.641644,203.369523 C303.641644,175.548835 322.333906,152.015366 347.782627,144.736544 C355.111753,134.137897 365.062986,125.797178 376.425108,120.097483 L360.982352,82.6943173 C353.796139,65.2781887 337.64287,54.457 318.846211,54.457 C300.049551,54.457 282.881699,65.2781887 275.695486,82.6943173 L181.026,312.062058 L248.584509,266.900439 C252.237417,264.473826 256.720438,263.759459 260.9227,264.84676 C265.139152,265.977757 268.672458,268.850468 270.617499,272.765769 L295.238133,320.100975 L342.452261,296.433372 C347.75222,293.798444 354.107305,294.453874 358.753511,298.159844 L495.026,407.457 L435.958168,264.339691 Z" id="Path" stroke="#000000" stroke-width="20" fill="#FFFFFF"></path>
            <path d="M345.124,323.71 L293.709,349.418 C286.282,353.095 276.303,350.121 272.582,342.709 L250.185,297.914 L160.419,357.758 L125.973,441 L491.73,441 L345.124,323.71 Z" id="Path" fill="#000000"></path>
            <path d="M148.7,266.64 C142.46,247.949 125.702,235.878 106,235.878 C86.298,235.878 69.54,247.948 63.314,266.64 L44.395,320.396 L86.253,306.777 C91.658,304.961 97.606,306.381 101.605,310.395 L123.959,332.749 L142.046,323.707 L156.266,289.343 L148.7,266.64 Z" id="Path" stroke="#000000" stroke-width="20" fill="#FFFFFF"></path>
            <path d="M110.374896,361.605 L86.890678,338.167 L32.4109372,355.967 L4.029,441 L93.7701159,441 C96.9144296,432.156 115.739255,387.437 125.029,364.83 C119.879936,366.293 114.313299,365.515 110.374896,361.605 Z" id="Path" fill="#000000"></path>
        </g>
    </g>
</svg>