<svg width="434" height="588" viewBox="0 0 434 588" fill="none" xmlns="http://www.w3.org/2000/svg">
<path d="M146 445L220 411L304 445V580H146V445Z" fill="url(#paint0_linear)"/>
<path d="M145.087 178.832C142.243 178.832 139.437 177.551 137.581 175.121C124.388 157.794 99.8561 147.03 73.5539 147.03C51.0374 147.03 30.0182 154.667 15.883 167.964C13.039 170.648 8.84834 171.289 5.32631 169.584C1.80428 167.879 -0.295745 164.197 0.0338564 160.308C7.66178 70.8353 102.352 0.423006 215.603 0.0180664C215.612 0.0180664 215.622 0.0180664 215.631 0.0180664C220.82 0.0180664 225.029 4.20872 225.048 9.407C225.067 14.6053 220.867 18.8336 215.659 18.8524C121.61 19.1915 41.6578 71.0237 22.6539 140.325C37.5802 132.48 55.2186 128.186 73.5445 128.186C106.09 128.186 135.632 141.464 152.564 163.698C155.709 167.832 154.918 173.746 150.775 176.901C149.08 178.21 147.074 178.832 145.087 178.832Z" fill="black"/>
<path d="M289.263 177.429C287.182 177.429 285.101 176.751 283.358 175.338C279.309 172.071 278.678 166.147 281.946 162.098C299.066 140.871 328.118 128.187 359.657 128.187C377.982 128.187 395.611 132.481 410.547 140.325C391.534 71.0336 311.591 19.2014 217.551 18.8529C212.343 18.8341 208.143 14.6058 208.162 9.40749C208.181 4.21862 212.39 0.0185547 217.579 0.0185547C217.589 0.0185547 217.598 0.0185547 217.608 0.0185547C330.849 0.432911 425.53 70.8453 433.158 160.309C433.487 164.198 431.387 167.889 427.865 169.585C424.362 171.28 420.171 170.649 417.309 167.965C403.173 154.658 382.154 147.03 359.638 147.03C333.74 147.03 310.169 157.088 296.59 173.926C294.744 176.233 292.013 177.429 289.263 177.429Z" fill="black"/>
<path d="M145.079 178.832C144.071 178.832 143.054 178.672 142.065 178.343C138.242 177.053 135.662 173.455 135.662 169.415V115.794C135.662 70.0451 163.866 27.1968 211.093 1.18657C212.487 0.414356 214.05 0.0188347 215.632 0.0188347L216.602 0C216.612 0 217.582 0.0188347 217.582 0.0188347C219.136 0.0188347 220.699 0.414357 222.064 1.15831C270.045 27.1121 298.683 70.2052 298.683 116.415V168.022C298.683 170.169 297.948 172.25 296.601 173.917C294.803 176.149 291.526 178.136 288.644 178.136C288.616 178.136 288.587 178.136 288.559 178.136C285.668 178.098 282.372 177.429 280.62 175.132C267.427 157.804 242.895 147.04 216.593 147.04C190.291 147.04 165.75 157.804 152.565 175.132C150.757 177.505 147.96 178.832 145.079 178.832ZM216.602 128.196C240.607 128.196 262.973 135.419 279.858 148.132V116.406C279.858 78.3416 256.305 42.4339 216.649 19.6819C177.653 42.4527 154.496 78.125 154.496 115.784V147.275C171.24 135.099 193.135 128.196 216.602 128.196ZM216.084 10.2365L216.207 10.4531L216.132 9.41719L216.084 10.2365Z" fill="black"/>
<path d="M222.137 418.887C218.154 418.887 214.453 416.335 213.172 412.342L136.102 172.297C134.51 167.344 137.241 162.042 142.185 160.451C147.148 158.831 152.44 161.59 154.032 166.534L231.102 406.578C232.694 411.532 229.963 416.834 225.019 418.425C224.058 418.736 223.088 418.887 222.137 418.887Z" fill="black"/>
<path d="M222.148 418.887C221.319 418.887 220.481 418.774 219.643 418.548C214.633 417.173 211.676 411.984 213.06 406.974L279.046 166.93C280.421 161.91 285.573 158.935 290.62 160.347C295.63 161.722 298.587 166.911 297.203 171.921L231.217 411.965C230.077 416.137 226.282 418.887 222.148 418.887Z" fill="black"/>
<path d="M222.146 418.876C219.491 418.876 216.854 417.755 214.989 415.58L2.2739 167.23C-1.11629 163.284 -0.65485 157.342 3.30037 153.961C7.25559 150.571 13.1978 151.032 16.5786 154.987L229.294 403.338C232.675 407.283 232.223 413.235 228.268 416.616C226.488 418.132 224.312 418.876 222.146 418.876Z" fill="black"/>
<path d="M222.138 418.876C220.048 418.876 217.957 418.188 216.205 416.766C212.165 413.489 211.553 407.556 214.831 403.516L416.471 155.166C419.758 151.136 425.691 150.524 429.721 153.791C433.761 157.069 434.374 163.001 431.096 167.041L229.455 415.392C227.591 417.689 224.869 418.876 222.138 418.876Z" fill="black"/>
<path d="M302.828 587.999H141.465C136.266 587.999 132.047 583.78 132.047 578.581V448.361C132.047 443.162 136.266 438.943 141.465 438.943C146.663 438.943 150.882 443.162 150.882 448.361V569.164H293.411V448.361C293.411 443.162 297.63 438.943 302.828 438.943C308.026 438.943 312.245 443.162 312.245 448.361V578.581C312.245 583.78 308.026 587.999 302.828 587.999Z" fill="black"/>
<path d="M243.781 506.664C242.198 506.664 240.616 506.269 239.194 505.468L221.999 495.872L204.85 505.044C201.931 506.608 198.409 506.513 195.565 504.818C192.73 503.114 190.988 500.053 190.988 496.738V409.45C190.988 404.252 195.207 400.033 200.405 400.033H243.771C248.969 400.033 253.188 404.252 253.188 409.45V497.237C253.188 500.571 251.418 503.669 248.536 505.355C247.077 506.231 245.429 506.664 243.781 506.664ZM222.093 475.729C223.675 475.729 225.257 476.124 226.679 476.925L234.354 481.209V418.877H209.822V481.03L217.648 476.84C219.042 476.096 220.567 475.729 222.093 475.729Z" fill="black"/>
<path d="M200.405 457.78H125.275C120.076 457.78 115.857 453.561 115.857 448.363V409.432C115.857 406.937 116.846 404.535 118.617 402.774C120.387 401.013 122.779 400.015 125.275 400.015L200.405 400.043C205.603 400.043 209.822 404.262 209.822 409.461V448.363C209.822 453.561 205.613 457.78 200.405 457.78ZM134.701 438.946H190.997V418.878L134.701 418.859V438.946V438.946Z" fill="black"/>
<path d="M319.005 457.78H243.78C238.582 457.78 234.363 453.561 234.363 448.363V409.46C234.363 404.262 238.572 400.043 243.78 400.043L319.005 400.015C321.5 400.015 323.901 401.003 325.662 402.774C327.423 404.544 328.422 406.936 328.422 409.432V448.363C328.422 453.561 324.203 457.78 319.005 457.78ZM253.197 438.945H309.587V418.858L253.197 418.877V438.945Z" fill="black"/>
<defs>
<linearGradient id="paint0_linear" x1="681.584" y1="584" x2="547.436" y2="609.152" gradientUnits="userSpaceOnUse">
<stop stop-color="#ED8E34"/>
<stop offset="1" stop-color="#F8B710"/>
</linearGradient>
</defs>
</svg>
