<svg width="522" height="596" viewBox="0 0 522 596" fill="none" xmlns="http://www.w3.org/2000/svg">
<path d="M245 14H291.5L511 197V249L334.5 173L255.5 151.5L181 176L10.5 249L4.5 197L117.5 92.5L245 14Z" fill="url(#paint0_linear)"/>
<path fill-rule="evenodd" clip-rule="evenodd" d="M125.86 190.837C123.927 190.781 122.025 191.329 120.417 192.403C118.809 193.478 117.576 195.027 116.888 196.835C116.2 198.642 116.092 200.619 116.579 202.491C117.065 204.363 118.123 206.036 119.604 207.279L189.447 267.811C191.147 269.273 193.316 270.074 195.559 270.066H325.934C328.176 270.074 330.346 269.273 332.045 267.811L401.889 207.279C402.813 206.477 403.57 205.501 404.117 204.405C404.664 203.31 404.99 202.118 405.076 200.897C405.162 199.676 405.007 198.45 404.619 197.289C404.231 196.128 403.618 195.053 402.816 194.129C402.013 193.205 401.037 192.448 399.941 191.901C398.846 191.354 397.654 191.03 396.433 190.944C395.212 190.858 393.986 191.013 392.825 191.401C391.664 191.788 390.59 192.401 389.666 193.204L322.478 251.441H199.014L131.826 193.204C130.181 191.733 128.066 190.894 125.86 190.837V190.837Z" fill="black"/>
<path fill-rule="evenodd" clip-rule="evenodd" d="M260.75 0C243.428 0 226.11 5.27492 211.459 15.7887C211.366 15.7887 178.953 38.2821 162.751 50.8186C122.414 82.036 81.5835 113.582 44.3436 149.293L2.87392 189.09C1.96539 189.959 1.24237 191.002 0.748461 192.159C0.254548 193.316 -2.91485e-05 194.56 7.80028e-05 195.817V251.438C-0.00628522 252.992 0.376765 254.525 1.11429 255.894C1.85182 257.263 2.92034 258.424 4.2224 259.274C5.52446 260.124 7.01861 260.635 8.56857 260.759C10.1185 260.883 11.6749 260.618 13.0959 259.986L203.202 175.812C239.701 159.659 281.799 159.659 318.298 175.812L508.404 259.986C509.825 260.618 511.382 260.883 512.932 260.759C514.482 260.635 515.976 260.124 517.278 259.274C518.58 258.424 519.648 257.263 520.386 255.894C521.123 254.525 521.506 252.992 521.5 251.438V195.817C521.5 194.56 521.246 193.316 520.752 192.159C520.258 191.002 519.535 189.959 518.626 189.09L477.157 149.293C439.917 113.582 399.086 82.036 358.75 50.8186C342.547 38.2821 310.128 15.8483 310.041 15.7887C295.391 5.27492 278.072 0 260.75 0V0ZM260.75 18.6625C274.301 18.6625 287.851 22.7692 299.237 30.9568C299.286 31.0195 299.335 31.0818 299.386 31.1432C299.386 31.1432 332.177 53.8736 347.367 65.6297C387.705 96.8471 427.96 128.033 464.246 162.828L502.879 199.782V237.144L325.832 158.785C284.497 140.494 237.01 140.494 195.675 158.785L18.6288 237.144V199.782L57.2612 162.75C93.5479 127.955 133.803 96.7698 174.14 65.5524C189.331 53.7963 222.121 31.0671 222.121 31.0671C222.172 31.0056 222.222 30.9433 222.27 30.8806C233.657 22.6931 247.206 18.5863 260.757 18.5863L260.75 18.6625Z" fill="black"/>
<path fill-rule="evenodd" clip-rule="evenodd" d="M298.034 153.548C296.575 153.537 295.134 153.868 293.827 154.516C292.52 155.164 291.383 156.111 290.509 157.279C289.634 158.447 289.047 159.805 288.793 161.241C288.54 162.678 288.627 164.153 289.048 165.55L316.986 263.331C317.293 264.54 317.839 265.677 318.592 266.671C319.346 267.665 320.291 268.496 321.373 269.117C322.454 269.739 323.649 270.137 324.887 270.288C326.125 270.439 327.381 270.341 328.58 269.997C329.779 269.653 330.896 269.071 331.866 268.287C332.837 267.504 333.64 266.534 334.227 265.434C334.815 264.334 335.176 263.127 335.289 261.885C335.402 260.643 335.264 259.39 334.884 258.202L306.946 160.421C306.414 158.459 305.255 156.726 303.646 155.485C302.037 154.244 300.066 153.564 298.034 153.548V153.548Z" fill="black"/>
<path fill-rule="evenodd" clip-rule="evenodd" d="M223.207 153.553C221.219 153.624 219.306 154.328 217.748 155.565C216.19 156.802 215.069 158.505 214.549 160.426L186.612 258.207C186.232 259.395 186.094 260.648 186.206 261.89C186.319 263.132 186.68 264.339 187.268 265.439C187.856 266.539 188.659 267.509 189.629 268.292C190.599 269.076 191.717 269.658 192.916 270.002C194.115 270.346 195.37 270.444 196.608 270.293C197.847 270.142 199.042 269.744 200.123 269.122C201.204 268.501 202.15 267.67 202.903 266.676C203.657 265.682 204.203 264.545 204.509 263.336L232.447 165.555C232.876 164.137 232.96 162.637 232.693 161.18C232.426 159.723 231.816 158.353 230.913 157.179C230.009 156.005 228.839 155.063 227.499 154.432C226.159 153.802 224.687 153.501 223.207 153.553V153.553Z" fill="black"/>
<path fill-rule="evenodd" clip-rule="evenodd" d="M186.25 263.078V323.609H204.875V263.078H186.25Z" fill="black"/>
<path fill-rule="evenodd" clip-rule="evenodd" d="M316.625 263.078V323.609H335.25V263.078H316.625Z" fill="black"/>
<path fill-rule="evenodd" clip-rule="evenodd" d="M199.602 335.25C184.607 335.25 172.525 348.232 173.593 363.188L175.594 391.198C176.64 405.839 182.931 419.598 193.309 429.978L199.421 436.123C202.916 439.619 204.877 444.351 204.877 449.294V570.864C204.877 584.64 216.237 596 230.014 596H230.96C244.736 596 256.096 584.64 256.096 570.864V516.844H270.065V570.864C270.065 584.64 281.425 596 295.201 596H296.148C309.924 596 321.284 584.64 321.284 570.864V448.203C321.284 443.196 322.763 438.289 325.54 434.123L328.632 429.505C335.792 418.764 340.448 406.559 342.273 393.781L346.529 363.951C348.67 348.971 336.78 335.25 321.648 335.25H321.067C308.725 335.25 297.916 343.936 295.239 355.985L290.546 377.156H227.178L225.213 359.623C224.224 346.326 213.256 335.775 199.931 335.289H199.782L199.602 335.25ZM321.065 353.875H321.646C325.782 353.875 328.706 357.239 328.121 361.332L323.865 391.125C322.433 401.151 318.751 410.746 313.134 419.172L310.042 423.792C305.226 431.016 302.658 439.52 302.657 448.203V570.864C302.657 574.574 299.856 577.375 296.146 577.375H295.2C291.489 577.375 288.688 574.574 288.688 570.864V512.188C288.688 504.583 282.324 498.219 274.72 498.219H251.44C243.835 498.219 237.471 504.583 237.471 512.188V570.864C237.471 574.574 234.67 577.375 230.959 577.375H230.013C226.303 577.375 223.502 574.574 223.502 570.864V449.294C223.501 439.419 219.571 429.937 212.589 422.955L206.477 416.807C199.264 409.596 194.909 400.029 194.182 389.854L192.181 361.878C191.87 357.523 195.141 354.202 199.456 354.057C203.306 354.336 206.37 357.12 206.659 361.005V361.191L209.06 382.872C209.868 390.147 216.182 395.786 223.502 395.786H293.345C300.377 395.786 306.588 390.827 308.115 383.963L313.426 360.027C314.232 356.399 317.347 353.88 321.065 353.88L321.065 353.875Z" fill="black"/>
<path d="M237.324 311.866C234.861 311.905 232.513 312.918 230.795 314.683C229.077 316.449 228.128 318.822 228.157 321.286V335.254C228.157 353.146 242.859 367.848 260.751 367.848C278.642 367.848 293.344 353.146 293.344 335.254V321.286C293.362 320.052 293.134 318.827 292.674 317.682C292.214 316.537 291.53 315.494 290.664 314.615C289.797 313.736 288.765 313.038 287.626 312.562C286.488 312.086 285.266 311.841 284.032 311.841C282.798 311.841 281.576 312.086 280.437 312.562C279.299 313.038 278.266 313.736 277.4 314.615C276.533 315.494 275.85 316.537 275.39 317.682C274.93 318.827 274.702 320.052 274.719 321.286V335.254C274.719 343.079 268.575 349.223 260.751 349.223C252.926 349.223 246.782 343.079 246.782 335.254V321.286C246.796 320.041 246.561 318.807 246.091 317.655C245.62 316.503 244.923 315.457 244.042 314.579C243.16 313.701 242.111 313.008 240.957 312.542C239.804 312.075 238.568 311.847 237.324 311.866Z" fill="black"/>
<path fill-rule="evenodd" clip-rule="evenodd" d="M228.157 311.969C225.682 311.969 223.308 312.952 221.558 314.702C219.809 316.451 218.825 318.825 218.825 321.299C218.825 323.774 219.809 326.147 221.558 327.897C223.308 329.647 225.682 330.632 228.157 330.632H293.344C295.819 330.632 298.192 329.647 299.942 327.897C301.692 326.147 302.675 323.774 302.675 321.299C302.675 318.825 301.692 316.451 299.942 314.702C298.192 312.952 295.819 311.969 293.344 311.969H228.157Z" fill="black"/>
<path d="M260.751 279.375C242.86 279.375 228.157 294.079 228.157 311.969C228.14 313.203 228.368 314.427 228.828 315.572C229.288 316.717 229.971 317.761 230.838 318.639C231.704 319.518 232.737 320.216 233.875 320.692C235.014 321.169 236.236 321.413 237.47 321.413C238.704 321.413 239.926 321.169 241.064 320.692C242.203 320.216 243.235 319.518 244.102 318.639C244.968 317.761 245.651 316.717 246.111 315.572C246.572 314.427 246.8 313.203 246.782 311.969C246.782 304.146 252.926 298 260.751 298C268.575 298 274.72 304.146 274.72 311.969C274.702 313.203 274.93 314.427 275.39 315.572C275.851 316.717 276.534 317.761 277.4 318.639C278.267 319.518 279.299 320.216 280.438 320.692C281.576 321.169 282.798 321.413 284.032 321.413C285.266 321.413 286.488 321.169 287.627 320.692C288.765 320.216 289.798 319.518 290.664 318.639C291.531 317.761 292.214 316.717 292.674 315.572C293.134 314.427 293.362 313.203 293.345 311.969C293.345 294.079 278.642 279.375 260.751 279.375Z" fill="black"/>
<defs>
<linearGradient id="paint0_linear" x1="127" y1="-331.001" x2="851" y2="-119.001" gradientUnits="userSpaceOnUse">
<stop stop-color="#F8B710"/>
<stop offset="1" stop-color="#ED8E34"/>
</linearGradient>
</defs>
</svg>
