<svg width="775" height="598" viewBox="0 0 775 598" fill="none" xmlns="http://www.w3.org/2000/svg">
<path d="M647.277 506.594C644.996 506.594 642.699 506.001 640.584 504.768C588.562 474.239 539.429 453.339 494.54 442.645C487.421 440.957 483.025 433.808 484.729 426.689C486.417 419.554 493.552 415.189 500.686 416.877C548.13 428.179 599.712 450.053 654.001 481.921C660.314 485.617 662.413 493.74 658.716 500.053C656.252 504.251 651.826 506.594 647.277 506.594Z" fill="black"/>
<path d="M660.084 211.214C658.137 211.214 656.159 210.781 654.288 209.868L575.691 171.452C569.12 168.234 566.382 160.302 569.607 153.73C572.801 147.159 580.711 144.414 587.313 147.646L665.91 186.062C672.481 189.279 675.219 197.212 671.994 203.783C669.697 208.484 664.997 211.214 660.084 211.214Z" fill="url(#paint0_linear)"/>
<path d="M709.096 138.798C707.18 138.798 705.233 138.38 703.377 137.49L660.101 116.734C653.514 113.57 650.73 105.66 653.894 99.0661C657.074 92.4796 664.938 89.6884 671.57 92.8523L714.846 113.608C721.433 116.772 724.216 124.682 721.052 131.276C718.771 136.03 714.04 138.798 709.096 138.798Z" fill="url(#paint1_linear)"/>
<path d="M451.674 319.388C449.788 319.388 447.856 318.978 446.031 318.126L359.934 277.496C353.317 274.378 350.481 266.483 353.606 259.866C356.732 253.257 364.627 250.443 371.236 253.538L457.348 294.16C463.965 297.279 466.794 305.173 463.676 311.79C461.409 316.574 456.648 319.388 451.674 319.388Z" fill="url(#paint2_linear)"/>
<path d="M297.576 349.415C295.249 349.415 292.899 348.807 290.761 347.514L245.287 320.133C239.02 316.361 236.997 308.223 240.769 301.956C244.549 295.696 252.695 293.673 258.947 297.438L304.421 324.818C310.688 328.591 312.711 336.729 308.939 342.996C306.452 347.133 302.071 349.415 297.576 349.415Z" fill="url(#paint3_linear)"/>
<path d="M103.319 385.178C102.9 385.178 102.475 385.147 102.056 385.117C67.2754 381.786 36.518 374.226 8.02721 362.026C3.25083 359.988 0.109706 355.333 0.00320147 350.131C-0.110889 344.929 2.83255 340.152 7.52519 337.916C171.07 259.631 288.829 193.264 357.531 140.64C358.915 139.583 360.489 138.807 362.17 138.359C495.269 102.817 596.547 57.3124 663.218 3.12204C665.408 1.33468 668.116 0.300354 670.945 0.16343C701.84 -1.3045 734.255 7.12263 767.142 25.1861C773.409 28.6315 775.812 36.4197 772.588 42.7857C739.685 107.692 685.746 188.777 612.29 283.771C610.358 286.274 607.59 288 604.502 288.639C443.551 322.02 275.709 354.436 105.661 384.965C104.886 385.102 104.102 385.178 103.319 385.178ZM47.4551 348.062C64.6819 353.097 82.9964 356.581 102.786 358.573C270.294 328.47 435.626 296.564 594.326 263.693C660.876 177.338 710.799 103.023 742.895 42.5042C719.774 31.4912 698.083 26.3118 676.406 26.5019C607.271 81.4681 504.746 127.467 371.541 163.275C305.272 213.586 196.359 275.679 47.4551 348.062Z" fill="black"/>
<path d="M429.617 598C426.468 598 423.38 596.874 420.931 594.76C417.463 591.748 415.805 587.154 416.55 582.606C436.584 460.185 453.088 364.551 465.607 298.374C466.626 293.05 470.764 288.875 476.088 287.84L512.291 280.775C516.413 279.953 520.535 281.132 523.623 283.862C601.794 353.203 660.373 414.368 697.732 465.676C700.029 468.825 700.82 472.826 699.892 476.598C698.979 480.385 696.439 483.565 692.971 485.314C583.16 540.455 498.311 577.114 433.572 597.391C432.279 597.802 430.94 598 429.617 598ZM489.991 312.118C478.476 373.571 463.782 458.618 446.228 565.341C503.803 545.521 576.376 513.744 666.899 468.734C631.319 422.674 578.947 368.704 510.937 308.033L489.991 312.118Z" fill="black"/>
<path d="M601.796 288.919C599.712 288.919 597.582 288.424 595.605 287.375L261.373 110.322C254.908 106.9 252.444 98.8832 255.867 92.4184C259.297 85.9688 267.29 83.4893 273.77 86.9119L608.017 263.964C614.482 267.387 616.946 275.403 613.524 281.868C611.135 286.356 606.542 288.919 601.796 288.919Z" fill="black"/>
<path d="M387.673 547.226C386.456 547.226 385.224 547.059 383.999 546.709C264.879 512.377 197.014 465.891 206.886 425.383C216.925 384.191 297.751 375.581 428.675 401.775C435.839 403.205 440.494 410.187 439.064 417.367C437.619 424.547 430.683 429.11 423.473 427.756C286.662 400.376 235.81 418.569 232.623 431.65C229.498 444.489 265.115 484.875 391.331 521.245C398.359 523.268 402.42 530.615 400.397 537.643C398.724 543.454 393.423 547.226 387.673 547.226Z" fill="black"/>
<defs>
<linearGradient id="paint0_linear" x1="620.8" y1="146.289" x2="620.8" y2="211.214" gradientUnits="userSpaceOnUse">
<stop stop-color="#F8B710"/>
<stop offset="1" stop-color="#ED8E34"/>
</linearGradient>
<linearGradient id="paint1_linear" x1="687.473" y1="91.5479" x2="687.473" y2="138.798" gradientUnits="userSpaceOnUse">
<stop stop-color="#F8B710"/>
<stop offset="1" stop-color="#ED8E34"/>
</linearGradient>
<linearGradient id="paint2_linear" x1="408.639" y1="252.281" x2="408.639" y2="319.388" gradientUnits="userSpaceOnUse">
<stop stop-color="#F8B710"/>
<stop offset="1" stop-color="#ED8E34"/>
</linearGradient>
<linearGradient id="paint3_linear" x1="274.854" y1="295.544" x2="274.854" y2="349.415" gradientUnits="userSpaceOnUse">
<stop stop-color="#F8B710"/>
<stop offset="1" stop-color="#ED8E34"/>
</linearGradient>
</defs>
</svg>
