<svg width="1633" height="596" viewBox="0 0 1633 596" fill="none" xmlns="http://www.w3.org/2000/svg">
<path d="M718.8 267V232.5C718.8 229.9 718.2 228.1 717 227.1C715.8 225.9 713.7 225.3 710.7 225.3H684.3C660.7 225.3 648.9 214.1 648.9 191.7V148.2C648.9 126.2 661.5 115.2 686.7 115.2H723.3C748.5 115.2 761.1 126.2 761.1 148.2V173.1H718.2V154.2C718.2 149.2 715.5 146.7 710.1 146.7H699.9C694.5 146.7 691.8 149.2 691.8 154.2V187.8C691.8 190.4 692.4 192.3 693.6 193.5C694.8 194.5 696.9 195 699.9 195H725.7C738.5 195 747.7 197.8 753.3 203.4C758.9 208.8 761.7 216.9 761.7 227.7V272.7C761.7 294.9 749.1 306 723.9 306H687.6C662.2 306 649.5 294.9 649.5 272.7V248.1H692.4V267C692.4 272 695.1 274.5 700.5 274.5H710.7C716.1 274.5 718.8 272 718.8 267ZM917.815 115.2L879.415 209.4L917.815 306H871.615L834.715 209.4L871.615 115.2H917.815ZM791.215 306V115.2H833.815V306H791.215ZM1017.6 306H974.698V244.2L926.698 115.2H970.498L995.998 204.9L1019.7 115.2H1063.5L1017.6 244.5V306ZM1085.39 115.2H1164.89C1190.29 115.2 1202.99 126.2 1202.99 148.2V272.7C1202.99 294.9 1190.29 306 1164.89 306H1085.39V115.2ZM1160.09 269.1V152.1C1160.09 147.1 1157.39 144.6 1151.99 144.6H1128.29V276.6H1151.99C1157.39 276.6 1160.09 274.1 1160.09 269.1ZM1235.8 115.2H1278.4V306H1235.8V115.2ZM1393.08 115.2H1437.48L1395.48 306H1342.98L1300.68 115.2H1345.38L1369.08 256.8L1393.08 115.2ZM1501.91 274.5H1563.11V306H1459.01V115.2H1560.71V146.7H1501.91V193.2H1552.01V224.7H1501.91V274.5Z" fill="#F8B710"/>
<path d="M726.64 401.44C731.52 402.8 735.28 405.24 737.92 408.76C740.64 412.28 742 416.68 742 421.96C742 429.24 739.48 434.92 734.44 439C729.48 443 722.52 445 713.56 445H676.84V360.4H712.24C720.96 360.4 727.76 362.36 732.64 366.28C737.6 370.12 740.08 375.52 740.08 382.48C740.08 386.96 738.88 390.84 736.48 394.12C734.16 397.4 730.88 399.84 726.64 401.44ZM688.96 397H710.32C722.16 397 728.08 392.52 728.08 383.56C728.08 379.08 726.6 375.76 723.64 373.6C720.76 371.44 716.32 370.36 710.32 370.36H688.96V397ZM712.24 435.04C718.4 435.04 722.92 433.92 725.8 431.68C728.68 429.44 730.12 425.96 730.12 421.24C730.12 416.44 728.64 412.88 725.68 410.56C722.8 408.16 718.32 406.96 712.24 406.96H688.96V435.04H712.24ZM888.368 360.4H900.728V445H888.368V360.4ZM1119.2 445H1105.52L1091.12 417.88C1089.52 415 1087.6 413 1085.36 411.88C1083.2 410.68 1080.32 410.08 1076.72 410.08H1062.8V445H1050.56V360.4H1086.56C1095.92 360.4 1103.04 362.48 1107.92 366.64C1112.88 370.8 1115.36 376.88 1115.36 384.88C1115.36 391.36 1113.52 396.68 1109.84 400.84C1106.24 405 1101.08 407.64 1094.36 408.76C1098.52 410.04 1101.96 413.16 1104.68 418.12L1119.2 445ZM1085.12 400.12C1091.36 400.12 1095.96 398.92 1098.92 396.52C1101.96 394.04 1103.48 390.24 1103.48 385.12C1103.48 380 1102 376.28 1099.04 373.96C1096.08 371.56 1091.44 370.36 1085.12 370.36H1062.68V400.12H1085.12ZM1263.61 360.4H1293.25C1306.93 360.4 1317.53 364.08 1325.05 371.44C1332.57 378.8 1336.33 389.2 1336.33 402.64C1336.33 416.08 1332.57 426.52 1325.05 433.96C1317.53 441.32 1306.93 445 1293.25 445H1263.61V360.4ZM1292.53 434.68C1313.33 434.68 1323.73 424 1323.73 402.64C1323.73 381.36 1313.33 370.72 1292.53 370.72H1275.97V434.68H1292.53ZM1511.06 445.96C1504.5 445.96 1498.46 445.08 1492.94 443.32C1487.5 441.56 1482.82 438.96 1478.9 435.52L1483.34 426.4C1487.5 429.76 1491.78 432.2 1496.18 433.72C1500.66 435.16 1505.66 435.88 1511.18 435.88C1517.5 435.88 1522.38 434.72 1525.82 432.4C1529.26 430 1530.98 426.64 1530.98 422.32C1530.98 418.64 1529.38 415.92 1526.18 414.16C1522.98 412.32 1517.86 410.6 1510.82 409C1504.1 407.56 1498.58 405.92 1494.26 404.08C1489.94 402.24 1486.54 399.76 1484.06 396.64C1481.66 393.44 1480.46 389.4 1480.46 384.52C1480.46 379.56 1481.74 375.2 1484.3 371.44C1486.94 367.68 1490.66 364.76 1495.46 362.68C1500.26 360.52 1505.82 359.44 1512.14 359.44C1518.06 359.44 1523.62 360.36 1528.82 362.2C1534.1 363.96 1538.42 366.52 1541.78 369.88L1537.46 379C1533.54 375.8 1529.5 373.44 1525.34 371.92C1521.26 370.32 1516.9 369.52 1512.26 369.52C1506.18 369.52 1501.38 370.8 1497.86 373.36C1494.42 375.84 1492.7 379.32 1492.7 383.8C1492.7 387.64 1494.22 390.56 1497.26 392.56C1500.3 394.48 1505.18 396.24 1511.9 397.84C1518.94 399.44 1524.62 401.12 1528.94 402.88C1533.34 404.56 1536.82 406.92 1539.38 409.96C1542.02 412.92 1543.34 416.8 1543.34 421.6C1543.34 426.48 1542.02 430.76 1539.38 434.44C1536.82 438.12 1533.1 440.96 1528.22 442.96C1523.42 444.96 1517.7 445.96 1511.06 445.96Z" fill="#333232"/>
<path d="M365.859 102.189C331.616 96.6694 219.477 80.0949 149.873 67.9374C134.019 65.1651 117.987 63.9697 102.616 63.9697C50.4933 63.9697 5.84806 77.6617 0.727337 90.0226C-5.90247 106.038 34.9785 113.778 34.9785 113.778C39.0565 134.651 59.9294 136.525 67.2459 136.525C68.8398 136.525 69.7808 136.431 69.7808 136.431C73.6213 156.948 96.6646 159.271 106.881 159.271C109.865 159.271 111.755 159.076 111.755 159.076C120.31 181.874 140.547 184.866 150.61 184.866C154.205 184.866 156.494 184.485 156.494 184.485C167.27 202.195 184.488 204.874 193.933 204.874C198.045 204.874 200.681 204.366 200.681 204.366C203.471 218.651 219.002 221.288 230.092 221.288C236.586 221.288 241.562 220.381 241.562 220.381C245.005 235.192 259.163 237.981 269.353 237.981C275.525 237.981 280.231 236.955 280.231 236.955C285.131 245.933 294.177 248.214 302.112 248.214C310.268 248.214 317.237 245.798 317.237 245.798C319.772 254.335 328.81 256.158 336.058 256.158C341.484 256.158 345.91 255.141 345.91 255.141C348.911 261.135 357.338 262.321 363.57 262.321C367.665 262.321 370.81 261.804 370.81 261.804C371.166 263.593 375.668 265.374 382.815 265.374C386.757 265.374 391.479 264.831 396.77 263.466C411.691 259.6 418.821 243.356 418.821 243.356C418.821 243.356 418.965 243.008 419.194 242.491C418.965 243.017 418.736 243.551 418.533 244.094C396.32 300.328 420.517 420.479 419.414 430.288C418.312 440.224 401.187 545.725 404.501 550.701C405.07 551.541 405.595 551.897 406.095 551.897C408.512 551.897 410.029 543.52 410.029 543.52C411.14 549.031 409.359 569.387 418.329 572.252C418.778 572.396 419.211 572.447 419.635 572.447C432.487 572.447 437.651 510.931 437.651 510.931C434.887 550.701 439.211 584.986 445.281 589.955C446.951 591.328 448.816 592.023 450.63 592.023C455.387 592.023 459.897 587.225 460.304 577.212C460.821 564.461 466.374 475.026 466.374 475.026C468.036 486.082 476.327 573.897 477.981 581.078C479.634 588.267 484.61 595.999 488.468 595.999C492.342 595.999 496.768 593.787 496.768 578.865C496.768 566.394 485.161 454.586 485.161 454.586C489.57 486.497 505.492 570.591 515.419 570.591C515.462 570.591 515.504 570.591 515.538 570.591C531.036 569.531 495.725 455.391 497.149 455.391C497.2 455.391 497.293 455.519 497.429 455.807C504.39 469.728 522.965 540.434 531.824 540.434C532.121 540.434 532.392 540.35 532.672 540.205C544.686 533.143 489.587 380.013 489.587 380.013C495.013 369.17 510.553 340.217 514.784 340.217C514.86 340.217 514.928 340.217 514.996 340.243C518.862 341.345 512.791 349.085 512.791 349.085C535.436 344.668 538.751 316.479 538.751 316.479C622.166 241.364 557.92 133.405 586.262 110.446C618.3 84.478 612.221 54.1013 642.056 33.6608C658.062 22.7072 693.746 20.1637 723.419 20.1637C749.065 20.1637 770.209 22.0713 770.209 22.0713C749.464 13.2881 726.319 10.5412 705.166 10.5412C672.271 10.5412 644.158 17.188 637.096 18.1968C635.578 18.4088 633.908 18.5105 632.162 18.5105C620.513 18.5105 605.058 14.3393 605.058 14.3393C590.501 9.40514 577.919 7.28564 567.008 7.28564C507.035 7.28564 497.293 71.1506 487.951 82.8333C476.904 96.6355 460.329 118.187 454.81 131.997C454.793 132.014 384.146 105.139 365.859 102.189ZM588.466 33.9744C591.671 33.9744 594.257 36.5687 594.257 39.7734C594.257 42.9696 591.671 45.5724 588.466 45.5724C585.253 45.5724 582.667 42.9696 582.667 39.7734C582.667 36.5687 585.253 33.9744 588.466 33.9744Z" fill="#19459F"/>
<path d="M218.367 58.8241C220.02 67.1156 244.877 79.3748 255.382 76.2295C257.323 78.6966 259.222 80.7483 261.113 82.6389C281.197 85.7673 300.714 88.76 317.966 91.4136C338.924 94.6183 356.134 97.2634 366.376 98.9251C382.849 101.57 439.236 122.613 453.013 127.81C456.09 121.197 461.601 112.549 469.087 102.164C381.865 55.7975 367.503 63.7498 336.016 53.5932C264.758 21.0037 169.745 -0.318564 150.407 0.00360072C150.407 0.00360072 138.393 4.14936 148.338 14.0941C155.816 21.5378 191.313 56.6198 218.367 58.8241Z" fill="#19459F"/>
</svg>
